sean_light.sfdir

StartChar: exclam
Encoding: 33 33 1
Width: 401
Flags: MW
HStem: 0 21G<206 245 206 206> 702 20G<206 244 244 244>
VStem: 206 39<0 129 0 129>
LayerCount: 2
Fore
SplineSet
208 229 m 1
 206 722 l 1
 244 722 l 1
 244 229 l 1
 208 229 l 1
206 129 m 1
 245 129 l 1
 245 0 l 1
 206 0 l 1
 206 129 l 1
EndSplineSet
EndChar

StartChar: quotedbl
Encoding: 34 34 2
Width: 435
Flags: MW
HStem: 658 188<88 164 88 164 127 273 127 309>
VStem: 88 261<658 846>
LayerCount: 2
Fore
SplineSet
273 658 m 1
 312 846 l 1
 349 846 l 1
 309 658 l 1
 273 658 l 1
88 658 m 1
 127 846 l 1
 164 846 l 1
 124 658 l 1
 88 658 l 1
EndSplineSet
EndChar

StartChar: numbersign
Encoding: 35 35 3
Width: 653
Flags: MW
HStem: 243 33<44 52> 254 33<367 378> 464 34<217 227> 473 34<470 481>
LayerCount: 2
Fore
SplineSet
44 243 m 1x80
 52 276 l 1
 159 280 l 1
 217 464 l 1
 112 461 l 1
 120 494 l 1
 227 498 l 1xa0
 292 706 l 1
 326 706 l 1
 261 499 l 1
 446 505 l 1
 514 720 l 1
 548 720 l 1
 481 507 l 1
 578 510 l 1
 573 476 l 1
 470 473 l 1
 412 289 l 1
 508 292 l 1
 502 259 l 1
 402 255 l 1
 333 38 l 1
 299 38 l 1
 367 254 l 1x50
 183 248 l 1
 115 30 l 1
 81 30 l 1
 149 247 l 1
 44 243 l 1x80
251 466 m 1
 193 281 l 1
 378 287 l 1x40
 436 472 l 1
 251 466 l 1
EndSplineSet
EndChar

StartChar: quotesingle
Encoding: 39 39 4
Width: 249
Flags: MW
HStem: 658 188<92 168 92 168>
VStem: 92 76
LayerCount: 2
Fore
SplineSet
92 658 m 1
 132 846 l 1
 168 846 l 1
 128 658 l 1
 92 658 l 1
EndSplineSet
EndChar

StartChar: parenleft
Encoding: 40 40 5
Width: 444
Flags: MW
VStem: 75 36<223.5 437.5 223.5 439>
LayerCount: 2
Fore
SplineSet
347 884 m 1
 199 740 111 547 111 328 c 0
 111 119 194 -83 343 -230 c 1
 317 -257 l 1
 161 -102 75 107 75 326 c 0
 75 552 164 755 317 907 c 1
 347 884 l 1
EndSplineSet
EndChar

StartChar: parenright
Encoding: 41 41 6
Width: 445
Flags: MW
VStem: 315 37<211.5 430.5>
LayerCount: 2
Fore
SplineSet
315 319 m 0
 315 542 226 736 74 881 c 1
 100 908 l 1
 260 756 352 554 352 321 c 0
 352 97 260 -117 97 -271 c 1
 67 -248 l 1
 225 -101 315 104 315 319 c 0
EndSplineSet
EndChar

StartChar: plus
Encoding: 43 43 7
Width: 751
Flags: MW
HStem: 304 36<87 363 87 363>
VStem: 363 37<303 304 340 588>
LayerCount: 2
Fore
SplineSet
87 304 m 1
 87 340 l 1
 363 340 l 1
 363 588 l 1
 400 588 l 1
 400 340 l 1
 664 340 l 1
 664 303 l 1
 400 303 l 1
 399 18 l 1
 362 18 l 1
 363 304 l 1
 87 304 l 1
EndSplineSet
EndChar

StartChar: comma
Encoding: 44 44 8
Width: 320
Flags: MW
HStem: -103 195<60 207 60 207>
VStem: 60 147
LayerCount: 2
Fore
SplineSet
60 -103 m 1
 167 92 l 1
 207 92 l 1
 95 -103 l 1
 60 -103 l 1
EndSplineSet
EndChar

StartChar: hyphen
Encoding: 45 45 9
Width: 385
Flags: MW
HStem: 254 36<48 337 48 337>
VStem: 48 289<254 290 254 290>
LayerCount: 2
Fore
SplineSet
48 290 m 1
 337 290 l 1
 337 254 l 1
 48 254 l 1
 48 290 l 1
EndSplineSet
EndChar

StartChar: period
Encoding: 46 46 10
Width: 323
Flags: MW
HStem: 0 151<142 181 142 181>
VStem: 142 39<0 151 0 151>
LayerCount: 2
Fore
SplineSet
142 151 m 1
 181 151 l 1
 181 0 l 1
 142 0 l 1
 142 151 l 1
EndSplineSet
EndChar

StartChar: slash
Encoding: 47 47 11
Width: 563
Flags: W
LayerCount: 2
Fore
SplineSet
94 -68 m 1
 56 -68 l 1
 479 844 l 1
 517 844 l 1
 94 -68 l 1
EndSplineSet
EndChar

StartChar: zero
Encoding: 48 48 12
Width: 573
Flags: MW
HStem: -5 37<286 341 231.5 351> 498 37<287 288 288 289 289 292>
VStem: 66 38<206.5 329 206.5 338.5> 471 37<209.5 332>
LayerCount: 2
Fore
SplineSet
104 268 m 0
 104 145 176 32 287 32 c 0
 395 32 471 146 471 273 c 0
 471 391 402 495 292 498 c 1
 289 498 l 2
 177 498 104 390 104 268 c 0
286 -5 m 1
 158 -4 66 121 66 268 c 0
 66 409 155 535 287 535 c 2
 288 535 l 2
 420 535 508 410 508 270 c 0
 508 121 416 -5 286 -5 c 1
EndSplineSet
EndChar

StartChar: one
Encoding: 49 49 13
Width: 305
Flags: MW
HStem: 0 21G<189 227 189 189>
VStem: 189 38<0 0>
LayerCount: 2
Fore
SplineSet
188 471 m 1
 226 471 l 1
 227 0 l 1
 189 0 l 1
 188 424 l 1
 8 280 l 1
 -17 307 l 1
 188 471 l 1
EndSplineSet
EndChar

StartChar: two
Encoding: 50 50 14
Width: 440
Flags: MW
HStem: 25 37<3 75 139 445 3 75> 504 37<173 250.5>
VStem: 336 34<356 403.5>
LayerCount: 2
Fore
SplineSet
336 367 m 0
 336 440 293 504 208 504 c 0
 138 504 92 442 48 372 c 1
 19 393 l 1
 70 474 129 541 211 541 c 0
 316 541 370 459 370 371 c 0
 370 341 364 309 353 277 c 0
 314 166 240 91 139 62 c 1
 445 62 l 1
 445 25 l 1
 3 25 l 1
 3 62 l 1
 147 62 252 134 313 265 c 0
 329 300 336 335 336 367 c 0
EndSplineSet
EndChar

StartChar: three
Encoding: 51 51 15
Width: 529
Flags: MW
HStem: -240 35<168 242> 112 36<129 130 129 197.5 130 172> 478 35<162.5 243.5>
VStem: 379 37<280 373.5> 415 39<-88 -30>
LayerCount: 2
Fore
SplineSet
379 322 m 0xf0
 379 425 298 478 189 478 c 0
 129 478 78 455 31 409 c 1
 16 434 l 1
 69 487 129 513 196 513 c 0
 324 513 416 445 416 324 c 0xf0
 416 236 363 174 282 140 c 1
 364 126 454 69 454 -41 c 0
 454 -156 319 -240 193 -240 c 0
 143 -240 93 -229 47 -205 c 1
 61 -172 l 1
 101 -194 145 -205 190 -205 c 0
 294 -205 415 -137 415 -39 c 0xe8
 415 -21 411 -1 402 18 c 0
 361 107 271 112 172 112 c 2
 130 112 l 1
 129 112 l 1
 129 148 l 1
 266 148 379 207 379 322 c 0xf0
EndSplineSet
EndChar

StartChar: four
Encoding: 52 52 16
Width: 606
Flags: MW
HStem: 63 36<49 381 6 6 420 596> 507 20G<382 421 421 421>
VStem: 381 39<-222 63 63 63 63 99>
LayerCount: 2
Fore
SplineSet
49 99 m 1
 381 99 l 1
 382 477 l 1
 49 99 l 1
6 99 m 1
 382 527 l 1
 421 527 l 1
 421 384 420 242 420 99 c 1
 596 99 l 1
 596 63 l 1
 420 63 l 1
 419 -222 l 1
 381 -222 l 1
 381 63 l 1
 6 63 l 1
 6 99 l 1
EndSplineSet
EndChar

StartChar: five
Encoding: 53 53 17
Width: 506
Flags: MW
HStem: -240 37<209 285 208.5 298.5> 183 36<205.5 260.5> 497 37<137 437 137 137>
VStem: 99 37<175 175> 424 37<-69.5 -5.5 -83 -4.5>
LayerCount: 2
Fore
SplineSet
93 -163 m 1
 141 -190 187 -203 230 -203 c 0
 340 -203 424 -122 424 -17 c 0
 424 8 419 35 409 62 c 0
 376 150 305 183 216 183 c 0
 191 183 164 180 136 175 c 1
 99 175 l 1
 100 534 l 1
 437 534 l 1
 437 497 l 1
 137 497 l 1
 136 211 l 1
 165 216 192 219 219 219 c 0
 324 219 408 176 445 71 c 0
 456 40 461 9 461 -20 c 0
 461 -146 363 -240 234 -240 c 0
 184 -240 130 -226 75 -195 c 1
 93 -163 l 1
EndSplineSet
EndChar

StartChar: six
Encoding: 54 54 18
Width: 587
Flags: MW
HStem: -8 40<311 353 311 364.5> 318 32<265 340> 680 34<514 528>
VStem: 468 42<132 215.5>
LayerCount: 2
Fore
SplineSet
514 714 m 1
 528 680 l 1
 420 648 322 590 241 512 c 0
 172 445 117 361 111 270 c 1
 161 322 230 350 300 350 c 0
 413 350 510 285 510 174 c 0
 510 74 419 -8 310 -8 c 0
 170 -8 73 109 73 248 c 0
 73 351 130 448 204 525 c 0
 290 613 396 678 514 714 c 1
468 172 m 0
 468 259 388 318 292 318 c 0
 221 318 154 284 112 225 c 1
 124 118 206 33 311 32 c 0
 395 32 468 92 468 172 c 0
EndSplineSet
EndChar

StartChar: seven
Encoding: 55 55 19
Width: 565
Flags: MW
HStem: 445 37<66 527>
LayerCount: 2
Fore
SplineSet
66 482 m 1
 527 482 l 1
 527 444 l 1
 139 -222 l 1
 99 -222 l 1
 485 444 l 1
 66 445 l 1
 66 482 l 1
EndSplineSet
EndChar

StartChar: eight
Encoding: 56 56 20
Width: 575
Flags: MW
HStem: -11 35<287 289 287 287> 624 36<252 323.5>
VStem: 100 38<158 195> 115 35<476 548.5 476 558.5> 433 37<473 544.5> 452 34<114.5 194>
LayerCount: 2
Fore
SplineSet
286 624 m 0xd8
 218 624 150 586 150 511 c 0
 150 441 224 392 299 356 c 1
 367 390 433 439 433 507 c 0
 433 582 361 624 286 624 c 0xd8
334 339 m 1
 413 300 486 245 486 156 c 0
 486 59 393 -11 289 -11 c 2
 287 -11 l 1
 189 -9 100 57 100 151 c 0xe4
 100 239 178 295 261 338 c 1
 185 378 115 433 115 512 c 0
 115 605 200 660 291 660 c 0
 384 660 470 600 470 509 c 0
 470 434 407 376 334 339 c 1
298 24 m 0
 378 24 452 74 452 155 c 0
 452 233 374 283 296 321 c 1
 218 283 138 236 138 158 c 0
 137 79 213 24 298 24 c 0
EndSplineSet
EndChar

StartChar: nine
Encoding: 57 57 21
Width: 592
Flags: MW
HStem: -208 35<85 99> 105 37<252.5 325> 441 40<240.5 283 283 285>
VStem: 87 40<248 333.5 248 343.5> 472 38
LayerCount: 2
Fore
SplineSet
286 481 m 0
 423 481 510 362 510 234 c 0
 510 128 452 32 375 -44 c 0
 298 -120 203 -176 99 -208 c 1
 85 -173 l 1
 187 -142 279 -87 354 -12 c 0
 411 44 456 112 469 187 c 1
 425 135 359 105 291 105 c 0
 177 105 87 178 87 291 c 0
 87 396 177 481 286 481 c 0
127 293 m 0
 127 203 205 142 300 142 c 0
 371 142 436 179 472 240 c 1
 467 349 389 441 285 441 c 2
 283 441 l 2
 198 441 127 374 127 293 c 0
EndSplineSet
EndChar

StartChar: colon
Encoding: 58 58 22
Width: 348
Flags: MW
HStem: 0 21G<158 196 158 158>
VStem: 158 38<0 147 0 147 341 487>
LayerCount: 2
Fore
SplineSet
158 147 m 1
 196 147 l 1
 196 0 l 1
 158 0 l 1
 158 147 l 1
158 487 m 1
 196 487 l 1
 196 341 l 1
 158 341 l 1
 158 487 l 1
EndSplineSet
EndChar

StartChar: semicolon
Encoding: 59 59 23
Width: 320
Flags: MW
VStem: 161 38<341 487 341 487>
LayerCount: 2
Fore
SplineSet
161 341 m 1
 161 487 l 1
 199 487 l 1
 199 341 l 1
 161 341 l 1
59 -95 m 1
 168 92 l 1
 206 92 l 1
 96 -95 l 1
 59 -95 l 1
EndSplineSet
EndChar

StartChar: less
Encoding: 60 60 24
Width: 813
Flags: W
LayerCount: 2
Fore
SplineSet
140 300 m 1
 711 55 l 1
 711 17 l 1
 97 281 l 1
 97 319 l 1
 701 589 l 1
 701 551 l 1
 140 300 l 1
EndSplineSet
EndChar

StartChar: equal
Encoding: 61 61 25
Width: 835
Flags: MW
HStem: 199 36<100 724 100 724> 421 37<100 724 100 724>
LayerCount: 2
Fore
SplineSet
100 235 m 1
 724 235 l 1
 724 199 l 1
 100 199 l 1
 100 235 l 1
100 458 m 1
 724 458 l 1
 724 421 l 1
 100 421 l 1
 100 458 l 1
EndSplineSet
EndChar

StartChar: greater
Encoding: 62 62 26
Width: 813
Flags: W
LayerCount: 2
Fore
SplineSet
114 17 m 1
 114 55 l 1
 676 301 l 1
 100 551 l 1
 100 589 l 1
 720 320 l 1
 720 282 l 1
 114 17 l 1
EndSplineSet
EndChar

StartChar: question
Encoding: 63 63 27
Width: 546
Flags: MW
HStem: 680 34<255.5 309.5>
VStem: 235 40<-10 125> 431 34<464 563>
LayerCount: 2
Fore
SplineSet
238 343 m 1
 339 343 431 411 431 517 c 0
 431 609 353 680 266 680 c 0
 245 680 223 676 202 667 c 1
 190 701 l 1
 214 710 239 714 263 714 c 0
 372 714 465 625 465 513 c 0
 465 396 376 325 276 310 c 1
 275 226 l 1
 237 226 l 1
 238 318 l 1
 238 343 l 1
275 -10 m 1
 235 -10 l 1
 235 125 l 1
 275 125 l 1
 275 -10 l 1
EndSplineSet
EndChar

StartChar: at
Encoding: 64 64 28
Width: 849
Flags: MW
HStem: -141 34<348.5 485.5 348.5 489.5> 40 32<605 656.5 605 665> 55 27<373 430.5> 362 33<397.5 467> 526 33<345 521.5>
VStem: 64 35<120.5 300.5 120.5 307.5> 250 35<176 253 176 263.5> 547 33<260.5 303.5> 749 35<194 325>
LayerCount: 2
Fore
SplineSet
749 245 m 0xdf80
 749 405 607 526 436 526 c 0
 254 526 99 390 99 211 c 0
 99 30 256 -107 441 -107 c 0
 530 -107 616 -74 681 -15 c 1
 705 -41 l 1
 632 -105 538 -141 441 -141 c 0
 237 -141 64 9 64 208 c 0
 64 407 236 559 439 559 c 0
 629 559 784 422 784 248 c 0
 784 128 705 40 625 40 c 0xdf80
 579 40 539 70 526 107 c 1
 496 74 453 55 408 55 c 0xbf80
 316 55 250 122 250 214 c 0
 250 313 335 395 439 395 c 0
 512 395 580 356 580 282 c 0
 580 239 556 199 555 154 c 1
 555 153 l 1
 555 152 l 2
 555 109 583 72 627 72 c 0
 686 72 749 143 749 245 c 0xdf80
285 212 m 0
 285 140 338 82 408 82 c 0xbf80
 457 82 500 112 519 157 c 1
 522 199 547 235 547 274 c 0
 547 333 494 362 440 362 c 0
 355 362 285 294 285 212 c 0
EndSplineSet
EndChar

StartChar: A
Encoding: 65 65 29
Width: 755
Flags: MW
HStem: 0 21G<66 107 66 66> 259 35<240 537 240 548 224 537> 701 20G<396 434 434 434>
LayerCount: 2
Fore
SplineSet
537 294 m 1
 412 672 l 1
 240 294 l 1
 537 294 l 1
548 259 m 1
 224 259 l 1
 107 0 l 1
 66 0 l 1
 396 721 l 1
 434 721 l 1
 672 1 l 1
 633 1 l 1
 548 259 l 1
EndSplineSet
EndChar

StartChar: B
Encoding: 66 66 30
Width: 635
Flags: MW
HStem: 0 36<150 276 150 276> 385 33<150 273 150 273> 686 36<150 271 150 150>
VStem: 111 39<36 36 36 385 418 686> 462 38<515 599.5> 508 38<152 260 138.5 269>
LayerCount: 2
Fore
SplineSet
378 403 m 1
 477 378 546 314 546 206 c 0
 546 71 426 0 276 0 c 2
 111 0 l 1
 111 722 l 1
 271 722 l 2
 396 722 500 672 500 553 c 0
 500 477 450 427 378 403 c 1
462 551 m 0
 462 648 374 686 271 686 c 2
 150 686 l 1
 150 418 l 1
 273 418 l 2
 377 418 462 461 462 551 c 0
150 36 m 1
 276 36 l 2
 403 36 508 94 508 210 c 0
 508 328 402 385 273 385 c 2
 150 385 l 1
 150 36 l 1
EndSplineSet
EndChar

StartChar: C
Encoding: 67 67 31
Width: 680
Flags: MW
HStem: -8 36<314 449.5 314 449.5> 694 37<324 459.5>
VStem: 88 37<253 453.5 253 462>
LayerCount: 2
Fore
SplineSet
399 28 m 0
 500 28 574 63 637 120 c 1
 660 91 l 1
 588 28 504 -8 395 -8 c 0
 203 -8 88 134 88 346 c 0
 88 578 207 731 412 731 c 0
 512 731 588 703 659 654 c 1
 638 623 l 1
 574 669 503 694 416 694 c 0
 232 694 125 558 125 349 c 0
 125 157 229 28 399 28 c 0
EndSplineSet
EndChar

StartChar: D
Encoding: 68 68 32
Width: 698
Flags: MW
HStem: 0 38<124 295 295 309> 684 38<124 277 277 283 124 124>
VStem: 86 38<38 684 38 722> 588 39<248 450.5>
LayerCount: 2
Fore
SplineSet
277 722 m 2
 503 722 627 587 627 349 c 0
 627 131 523 0 309 0 c 2
 86 0 l 1
 86 722 l 1
 277 722 l 2
588 344 m 0
 588 557 485 684 283 684 c 2
 124 684 l 1
 124 38 l 1
 295 38 l 2
 489 38 588 152 588 344 c 0
EndSplineSet
EndChar

StartChar: E
Encoding: 69 69 33
Width: 608
Flags: MW
HStem: 0 38<154 561 154 561> 355 37<154 447 154 447> 685 37<154 527 154 154>
VStem: 116 38<38 355 392 685>
LayerCount: 2
Fore
SplineSet
116 0 m 1
 116 722 l 1
 527 722 l 1
 527 685 l 1
 154 685 l 1
 154 392 l 1
 447 392 l 1
 447 355 l 1
 154 355 l 1
 154 38 l 1
 561 38 l 1
 561 0 l 1
 116 0 l 1
EndSplineSet
EndChar

StartChar: F
Encoding: 70 70 34
Width: 571
Flags: MW
HStem: 0 21G<116 116 116 154> 355 37<154 461 154 461> 685 37<154 531 154 154>
VStem: 116 38<0 355 392 685>
LayerCount: 2
Fore
SplineSet
116 0 m 1
 116 722 l 1
 531 722 l 1
 531 685 l 1
 154 685 l 1
 154 392 l 1
 461 392 l 1
 461 355 l 1
 154 355 l 1
 154 0 l 1
 116 0 l 1
EndSplineSet
EndChar

StartChar: G
Encoding: 71 71 35
Width: 777
Flags: MW
HStem: -6 35<335 479> 289 37<483 675 483 712> 692 38<329 473.5>
VStem: 86 38<258 466 258 475> 675 37<87 289 289 289>
LayerCount: 2
Fore
SplineSet
435 29 m 0
 524 29 602 50 675 87 c 1
 675 289 l 1
 483 289 l 1
 483 326 l 1
 712 326 l 1
 712 73 l 1
 626 22 532 -6 426 -6 c 0
 206 -6 86 128 86 361 c 0
 86 589 209 730 420 730 c 0
 529 730 614 701 696 652 c 1
 678 619 l 1
 603 666 523 692 424 692 c 0
 234 692 124 568 124 364 c 0
 124 152 235 29 435 29 c 0
EndSplineSet
EndChar

StartChar: H
Encoding: 72 72 36
Width: 756
Flags: MW
HStem: 0 21G<98 136 98 98 619 657 619 619> 344 37<137 619 137 619 136 619> 702 20G<99 137 137 137 619 657 657 657>
VStem: 98 38<0 344> 619 38<0 344 344 344 381 722 0 722>
LayerCount: 2
Fore
SplineSet
619 722 m 1
 657 722 l 1
 657 0 l 1
 619 0 l 1
 619 344 l 1
 136 344 l 1
 136 0 l 1
 98 0 l 1
 99 722 l 1
 137 722 l 1
 137 381 l 1
 619 381 l 1
 619 722 l 1
EndSplineSet
EndChar

StartChar: I
Encoding: 73 73 37
Width: 241
Flags: MW
HStem: 0 21G<101 101 101 139> 702 20G<102 140 140 140>
VStem: 101 38<0 0>
LayerCount: 2
Fore
SplineSet
101 0 m 1
 102 722 l 1
 140 722 l 1
 139 0 l 1
 101 0 l 1
EndSplineSet
EndChar

StartChar: J
Encoding: 74 74 38
Width: 303
Flags: MW
HStem: -220 34<17.5 80.5 17.5 88> 702 20G<162 201 201 201>
VStem: 162 38<-52.5 722>
LayerCount: 2
Fore
SplineSet
200 0 m 2
 200 -105 144 -220 32 -220 c 0
 -6 -220 -42 -204 -68 -176 c 1
 -49 -145 l 1
 -29 -171 2 -186 33 -186 c 0
 128 -186 162 -84 162 0 c 2
 162 722 l 1
 201 722 l 1
 200 0 l 2
EndSplineSet
EndChar

StartChar: K
Encoding: 75 75 39
Width: 661
Flags: MW
HStem: 0 21G<101 101 101 139 550 550 550 594> 702 20G<101 139 139 139 525 569 569 569>
VStem: 101 38<0 361 409 722>
LayerCount: 2
Fore
SplineSet
101 0 m 1
 101 722 l 1
 139 722 l 1
 139 409 l 1
 525 722 l 1
 569 722 l 1
 163 386 l 1
 594 0 l 1
 550 0 l 1
 139 361 l 1
 139 0 l 1
 101 0 l 1
EndSplineSet
EndChar

StartChar: L
Encoding: 76 76 40
Width: 563
Flags: MW
HStem: 0 38<139 537 139 537> 702 20G<101 139 139 139>
VStem: 101 38<38 722 38 722 38 722>
LayerCount: 2
Fore
SplineSet
101 0 m 1
 101 722 l 1
 139 722 l 1
 139 38 l 1
 537 38 l 1
 537 0 l 1
 101 0 l 1
EndSplineSet
EndChar

StartChar: M
Encoding: 77 77 41
Width: 876
Flags: MW
HStem: 0 21G<67 105 67 67 395 433 395 395 751 751 751 789> 702 20G<121 159 159 159 685 723 723 723>
LayerCount: 2
Fore
SplineSet
692 644 m 1
 433 0 l 1
 395 0 l 1
 153 638 l 1
 105 0 l 1
 67 0 l 1
 121 722 l 1
 159 722 l 1
 411 39 l 1
 685 722 l 1
 723 722 l 1
 789 0 l 1
 751 0 l 1
 692 644 l 1
EndSplineSet
EndChar

StartChar: N
Encoding: 78 78 42
Width: 766
Flags: MW
HStem: 0 21G<101 101 101 139 636 636 636 674> 702 20G<101 139 139 139 636 674 674 674>
VStem: 101 38<0 667 0 722> 636 38<0 722 55 722 0 722>
LayerCount: 2
Fore
SplineSet
101 0 m 1
 101 722 l 1
 139 722 l 1
 636 55 l 1
 636 722 l 1
 674 722 l 1
 674 0 l 1
 636 0 l 1
 139 667 l 1
 139 0 l 1
 101 0 l 1
EndSplineSet
EndChar

StartChar: O
Encoding: 79 79 43
Width: 758
Flags: MW
HStem: -6 37<294 379 379 383> 692 36<377 377 377 379>
VStem: 74 37<265 451 265 463> 648 37<268 453.5>
LayerCount: 2
Fore
SplineSet
377 692 m 1
 205 690 111 545 111 357 c 0
 111 173 210 31 378 31 c 0
 556 31 648 175 648 361 c 0
 648 546 552 692 379 692 c 2
 377 692 l 1
74 358 m 0
 74 568 187 728 380 728 c 0
 578 728 685 566 685 361 c 0
 685 156 576 -4 383 -6 c 1
 379 -6 l 2
 186 -6 74 153 74 358 c 0
EndSplineSet
EndChar

StartChar: P
Encoding: 80 80 44
Width: 553
Flags: MW
HStem: 0 21G<101 139 101 101> 276 39<249.5 325 244.5 340> 685 37<139 248 139 139>
VStem: 101 38<0 309 350 685> 461 38<440.5 554.5>
LayerCount: 2
Fore
SplineSet
274 276 m 0
 225 276 181 287 139 309 c 1
 139 0 l 1
 101 0 l 1
 101 722 l 1
 248 722 l 2
 390 722 499 641 499 488 c 0
 499 365 406 276 274 276 c 0
461 491 m 0
 461 618 367 685 248 685 c 2
 139 685 l 1
 139 350 l 1
 178 327 222 315 267 315 c 0
 383 315 461 390 461 491 c 0
EndSplineSet
EndChar

StartChar: Q
Encoding: 81 81 45
Width: 765
Flags: MW
HStem: -240 36<781 781> -6 36 691 37<378 382 382 468.5>
VStem: 68 37<271.5 367 271.5 467.5> 659 38<357 452>
LayerCount: 2
Fore
SplineSet
410 -5 m 1
 486 -111 618 -198 781 -204 c 1
 781 -240 l 1
 600 -232 452 -130 372 -6 c 1
 183 0 68 157 68 365 c 0
 68 570 183 726 378 728 c 1
 382 728 l 2
 579 728 697 569 697 356 c 0
 697 161 593 10 410 -5 c 1
382 691 m 0
 202 691 106 549 105 367 c 1
 105 176 211 30 383 30 c 0
 567 30 660 176 659 357 c 1
 659 547 555 691 382 691 c 0
EndSplineSet
EndChar

StartChar: R
Encoding: 82 82 46
Width: 676
Flags: MW
HStem: 0 21G<119 157 119 119 633 677 633 633> 332 36<157 259 157 259> 685 37<157 285 157 157>
VStem: 119 38<0 332 368 685> 495 38<483 582>
LayerCount: 2
Fore
SplineSet
285 722 m 2
 421 722 533 661 533 531 c 0
 533 435 468 373 375 347 c 1
 677 0 l 1
 633 0 l 1
 336 338 l 1
 312 334 286 332 259 332 c 2
 157 332 l 1
 157 0 l 1
 119 0 l 1
 119 722 l 1
 285 722 l 2
157 368 m 1
 259 368 l 2
 387 368 495 416 495 529 c 0
 495 635 400 685 285 685 c 2
 157 685 l 1
 157 368 l 1
EndSplineSet
EndChar

StartChar: S
Encoding: 83 83 47
Width: 573
Flags: MW
HStem: -6 37<240.5 325 240.5 331> 694 36<233 310.5>
VStem: 87 38<528 611 528 622.5> 452 38<122 216.5>
LayerCount: 2
Fore
SplineSet
459 641 m 1
 404 672 346 694 275 694 c 0
 191 694 125 648 125 574 c 0
 125 482 218 436 296 394 c 0
 391 344 490 281 490 164 c 0
 490 58 393 -6 269 -6 c 0
 195 -6 127 11 62 39 c 1
 76 74 l 1
 139 46 205 31 276 31 c 0
 374 31 452 78 452 166 c 0
 452 267 354 322 265 369 c 0
 181 414 87 467 87 576 c 0
 87 669 169 730 277 730 c 0
 354 730 415 708 473 675 c 1
 459 641 l 1
EndSplineSet
EndChar

StartChar: T
Encoding: 84 84 48
Width: 619
Flags: MW
HStem: 0 21G<267 306 267 267> 690 38<-6 621 -6 267 306 306 306 621>
VStem: 267 39<0 690 0 690>
LayerCount: 2
Fore
SplineSet
-6 690 m 1
 -6 728 l 1
 621 728 l 1
 621 690 l 1
 306 690 l 1
 306 0 l 1
 267 0 l 1
 267 690 l 1
 -6 690 l 1
EndSplineSet
EndChar

StartChar: U
Encoding: 85 85 49
Width: 703
Flags: MW
HStem: -6 38<292.5 435.5 292.5 441.5> 702 20G<92 130 130 130 588 626 626 626>
VStem: 92 38<287 295 295 722> 588 38<275 282 282 722>
LayerCount: 2
Fore
SplineSet
92 722 m 1
 130 722 l 1
 130 295 l 2
 130 141 218 32 367 32 c 0
 504 32 588 133 588 275 c 2
 588 722 l 1
 626 722 l 1
 626 282 l 2
 626 114 524 -6 359 -6 c 0
 193 -6 92 115 92 287 c 2
 92 722 l 1
EndSplineSet
EndChar

StartChar: V
Encoding: 86 86 50
Width: 730
Flags: MW
HStem: 0 21G<370 409 370 370> 702 20G<78 117 117 117 660 699 699 699>
LayerCount: 2
Fore
SplineSet
699 722 m 1
 409 0 l 1
 370 0 l 1
 78 722 l 1
 117 722 l 1
 391 51 l 1
 660 722 l 1
 699 722 l 1
EndSplineSet
EndChar

StartChar: W
Encoding: 87 87 51
Width: 967
Flags: MW
HStem: 0 21G<304 339 304 304 665 699 665 665> 702 20G<67 105 105 105 483 515 515 515 863 898 898 898>
LayerCount: 2
Fore
SplineSet
898 722 m 1
 699 0 l 1
 665 0 l 1
 500 662 l 1
 339 0 l 1
 304 0 l 1
 67 722 l 1
 105 722 l 1
 318 55 l 1
 483 722 l 1
 515 722 l 1
 681 58 l 1
 863 722 l 1
 898 722 l 1
EndSplineSet
EndChar

StartChar: X
Encoding: 88 88 52
Width: 688
Flags: MW
HStem: 0 21G<50 89 50 50 568 607 568 568> 702 20G<92 131 131 131 596 635 635 635>
LayerCount: 2
Fore
SplineSet
92 722 m 1
 131 722 l 1
 345 397 l 1
 596 722 l 1
 635 722 l 1
 366 365 l 1
 607 0 l 1
 568 0 l 1
 345 339 l 1
 89 0 l 1
 50 0 l 1
 326 367 l 1
 92 722 l 1
EndSplineSet
EndChar

StartChar: Y
Encoding: 89 89 53
Width: 619
Flags: MW
HStem: 0 21G<298 336 298 298> 702 20G<58 97 97 97 548 587 587 587>
VStem: 298 38<0 325 325 325>
LayerCount: 2
Fore
SplineSet
548 722 m 1
 587 722 l 1
 336 339 l 1
 336 0 l 1
 298 0 l 1
 298 325 l 1
 58 722 l 1
 97 722 l 1
 312 371 l 1
 548 722 l 1
EndSplineSet
EndChar

StartChar: Z
Encoding: 90 90 54
Width: 665
Flags: MW
HStem: 12 37<72 631 32 32> 666 37<99 607 99 567 99 607>
LayerCount: 2
Fore
SplineSet
99 666 m 1
 99 703 l 1
 607 703 l 1
 607 666 l 1
 72 49 l 1
 631 49 l 1
 631 12 l 1
 32 12 l 1
 32 49 l 1
 567 666 l 1
 99 666 l 1
EndSplineSet
EndChar

StartChar: underscore
Encoding: 95 95 55
Width: 707
Flags: MW
HStem: -226 38<14 691 14 691>
LayerCount: 2
Fore
SplineSet
14 -188 m 1
 691 -188 l 1
 691 -226 l 1
 14 -226 l 1
 14 -188 l 1
EndSplineSet
EndChar

StartChar: grave
Encoding: 96 96 56
Width: 327
Flags: MW
HStem: 656 190<81 231 81 269>
VStem: 81 188
LayerCount: 2
Fore
SplineSet
231 656 m 1
 81 846 l 1
 120 846 l 1
 269 656 l 1
 231 656 l 1
EndSplineSet
EndChar

StartChar: a
Encoding: 97 97 57
Width: 602
Flags: MW
HStem: -8 38<189 262.5> 0 21G<431 469 431 431> 289 30<280 352.5> 510 36<219.5 301.5>
VStem: 57 38<111.5 206.5 111.5 216.5> 431 38<0 109 109 109 160 286 286 286 317 339 339 348 0 390>
LayerCount: 2
Fore
SplineSet
431 339 m 2xbc
 431 441 360 510 243 510 c 0
 196 510 150 496 114 464 c 1
 90 491 l 1
 133 529 188 546 245 546 c 0
 383 546 469 468 469 348 c 2
 469 0 l 1
 431 0 l 1x7c
 431 109 l 1
 376 39 304 -8 221 -8 c 0
 120 -8 57 54 57 145 c 0
 57 288 198 319 362 319 c 0
 385 319 408 318 431 317 c 1
 431 339 l 2xbc
95 148 m 0
 95 75 150 30 228 30 c 0xbc
 314 30 383 86 431 160 c 1
 431 286 l 1
 399 288 368 289 337 289 c 0
 204 289 95 265 95 148 c 0
EndSplineSet
EndChar

StartChar: b
Encoding: 98 98 58
Width: 592
Flags: MW
HStem: -4 30<251.5 287> 510 30<264 355.5> 763 20G<85 123 123 123>
VStem: 85 38<0 78 139 395 449 783> 488 37<202.5 334>
LayerCount: 2
Fore
SplineSet
300 540 m 0
 450 540 525 417 525 270 c 0
 525 114 437 -3 287 -4 c 0
 216 -4 158 26 123 78 c 1
 123 0 l 1
 85 0 l 1
 85 783 l 1
 123 783 l 1
 123 449 l 1
 163 506 228 540 300 540 c 0
488 268 m 0
 488 400 420 510 291 510 c 0
 215 510 150 465 123 395 c 1
 123 139 l 1
 147 69 207 26 281 26 c 0
 420 26 488 137 488 268 c 0
EndSplineSet
EndChar

StartChar: c
Encoding: 99 99 59
Width: 468
Flags: MW
HStem: -8 38<234 327 234 328> 504 36<236 328>
VStem: 66 38<201.5 330 201.5 343>
LayerCount: 2
Fore
SplineSet
104 266 m 0
 104 137 168 30 300 30 c 0
 354 30 404 54 439 97 c 1
 464 72 l 1
 421 20 361 -8 295 -8 c 0
 140 -8 66 117 66 267 c 0
 66 419 150 540 305 540 c 0
 359 540 409 521 450 484 c 1
 430 454 l 1
 395 487 351 504 305 504 c 0
 167 504 104 394 104 266 c 0
EndSplineSet
EndChar

StartChar: d
Encoding: 100 100 60
Width: 624
Flags: MW
HStem: -6 30<253 348.5> 503 35<252 348 236.5 355.5> 763 20G<489 527 527 527>
VStem: 73 38<195 330.5 195 343> 490 38<0 91 91 91>
LayerCount: 2
Fore
SplineSet
320 503 m 0
 184 503 111 398 111 263 c 0
 111 127 189 24 317 24 c 0
 405 24 469 75 490 150 c 1
 490 230 491 309 491 389 c 2
 491 408 l 1
 455 468 391 503 320 503 c 0
307 538 m 0
 389 538 451 503 491 448 c 1
 491 560 490 672 489 783 c 1
 527 783 l 1
 528 652 529 521 529 389 c 0
 529 296 528 202 528 109 c 2
 528 0 l 1
 490 0 l 1
 490 91 l 1
 454 31 388 -6 309 -6 c 0
 160 -6 73 111 73 265 c 0
 73 421 166 538 307 538 c 0
EndSplineSet
EndChar

StartChar: e
Encoding: 101 101 61
Width: 558
Flags: MW
HStem: -7 37<246.5 337.5> 266 33<102 446 102 446 102 481> 503 38<227 335.5>
VStem: 64 38<266 266 266 299 266 353.5> 446 37<300 302 302 359.5>
LayerCount: 2
Fore
SplineSet
102 266 m 1
 109 131 182 30 311 30 c 0
 365 30 417 52 456 89 c 1
 480 62 l 1
 432 18 370 -7 305 -7 c 0
 146 -7 64 119 64 279 c 0
 64 428 149 541 280 541 c 0
 414 541 483 442 483 307 c 0
 483 293 483 280 481 266 c 1
 102 266 l 1
446 302 m 2
 446 417 390 503 281 503 c 0
 173 503 107 416 102 299 c 1
 446 299 l 1
 446 302 l 2
EndSplineSet
EndChar

StartChar: f
Encoding: 102 102 62
Width: 463
Flags: MW
HStem: 0 21G<196 235 196 196> 475 37<29 196 29 196 235 452> 764 38<335.5 386.5 319 390.5>
VStem: 196 39<0 475 0 475 512 593>
LayerCount: 2
Fore
SplineSet
235 512 m 1
 452 512 l 1
 452 475 l 1
 235 475 l 1
 235 0 l 1
 196 0 l 1
 196 475 l 1
 29 475 l 1
 29 512 l 1
 196 512 l 1
 196 593 l 2
 196 724 266 802 372 802 c 0
 401 802 434 796 468 783 c 1
 454 750 l 1
 427 759 402 764 379 764 c 0
 292 764 235 701 235 593 c 2
 235 512 l 1
EndSplineSet
EndChar

StartChar: g
Encoding: 103 103 63
Width: 584
Flags: MW
HStem: -297 37<203 312 203 312> 15 34<318 364.5> 186 36<247 266> 457 35<431 573 431 431> 506 33<227.5 298 219 312>
VStem: 43 35<-168 -121 -168 -98.5> 74 34<96.5 145.5> 78 38<330 401 319.5 410> 425 34<320.5 383 314.5 403.5> 485 35<-154.5 -66.5>
LayerCount: 2
Fore
SplineSet
485 -108 m 0xfcc0
 485 -25 403 15 326 15 c 0
 291 15 257 13 226 13 c 0
 202 13 180 14 161 18 c 1
 110 -9 77 -62 78 -121 c 1
 78 -215 153 -260 253 -260 c 0
 371 -260 485 -201 485 -108 c 0xfcc0
239 -297 m 0
 127 -297 43 -244 43 -131 c 0xfcc0
 43 -66 77 -7 131 26 c 1
 99 39 74 71 74 122 c 0xfac0
 74 169 103 209 146 225 c 1
 106 255 78 300 78 360 c 0xf9c0
 78 460 166 539 272 539 c 0
 324 539 367 522 401 492 c 1
 573 492 l 1
 573 457 l 1
 431 457 l 1
 448 431 459 401 459 365 c 0
 459 264 371 187 266 186 c 0
 228 186 193 196 163 214 c 1
 130 200 108 169 108 132 c 0xfac0
 108 60 156 44 216 44 c 0
 253 44 296 49 340 49 c 0
 429 49 520 -3 520 -103 c 0
 520 -217 385 -297 239 -297 c 0
116 362 m 0xf9c0
 116 277 189 222 268 222 c 0
 351 222 425 278 425 363 c 0
 425 444 354 506 270 506 c 0
 185 506 116 440 116 362 c 0xf9c0
EndSplineSet
EndChar

StartChar: h
Encoding: 104 104 64
Width: 577
Flags: MW
HStem: 0 21G<91 129 91 91 448 448 448 486> 509 38<263.5 337> 763 20G<90 128 128 128>
VStem: 90 38<727 783> 448 38<0 57>
LayerCount: 2
Fore
SplineSet
447 342 m 0
 447 429 387 509 287 509 c 0
 222 509 158 471 128 413 c 1
 128 275 129 137 129 0 c 1
 91 0 l 1
 90 242 90 485 90 727 c 2
 90 783 l 1
 128 783 l 1
 128 727 l 1
 128 464 l 1
 168 516 231 547 296 547 c 0
 417 547 485 449 485 345 c 0
 485 230 486 115 486 0 c 1
 448 0 l 1
 448 114 447 228 447 342 c 0
EndSplineSet
EndChar

StartChar: i
Encoding: 105 105 65
Width: 244
Flags: MW
HStem: 0 21G<102 102 102 140> 513 20G<101 139 139 139>
VStem: 101 39<690 799>
LayerCount: 2
Fore
SplineSet
101 690 m 1
 101 799 l 1
 140 799 l 1
 140 690 l 1
 101 690 l 1
102 0 m 1
 101 533 l 1
 139 533 l 1
 140 0 l 1
 102 0 l 1
EndSplineSet
EndChar

StartChar: j
Encoding: 106 106 66
Width: 351
Flags: MW
HStem: -296 37<44.5 81.5 43 93.5> 515 20G<175 213 213 213>
VStem: 175 38<-131 535>
LayerCount: 2
Fore
SplineSet
175 683 m 1
 175 797 l 1
 214 797 l 1
 214 683 l 1
 175 683 l 1
23 -257 m 1
 31 -259 39 -259 47 -259 c 0
 116 -259 175 -204 175 -131 c 2
 175 535 l 1
 213 535 l 1
 213 -131 l 2
 213 -223 138 -296 49 -296 c 0
 40 -296 32 -295 23 -294 c 1
 23 -257 l 1
EndSplineSet
EndChar

StartChar: k
Encoding: 107 107 67
Width: 604
Flags: MW
HStem: 0 21G<121 121 121 159 500 500 500 549> 513 20G<475 524 524 524> 763 20G<121 159 159 159>
VStem: 121 38<0 268 297 783>
LayerCount: 2
Fore
SplineSet
121 0 m 1
 121 783 l 1
 159 783 l 1
 159 297 l 1
 475 533 l 1
 524 533 l 1
 193 284 l 1
 549 0 l 1
 500 0 l 1
 159 268 l 1
 159 0 l 1
 121 0 l 1
EndSplineSet
EndChar

StartChar: l
Encoding: 108 108 68
Width: 270
Flags: MW
HStem: 1 21G<115 115 115 153> 763 20G<114 152 152 152>
VStem: 115 38<1 1>
LayerCount: 2
Fore
SplineSet
115 1 m 1
 114 783 l 1
 152 783 l 1
 153 1 l 1
 115 1 l 1
EndSplineSet
EndChar

StartChar: m
Encoding: 109 109 69
Width: 936
Flags: MW
HStem: 1 20G 509 37<274.5 352.5> 513 20G<100 138 138 138>
VStem: 100 38<452 533> 451 38<302.5 368 301.5 406.5> 800 38<1 1>
LayerCount: 2
Fore
SplineSet
451 363 m 0xdc
 451 450 401 509 304 509 c 0xdc
 233 509 170 469 138 405 c 1
 138 258 138 150 137 0 c 1
 99 0 l 1
 100 159 100 271 100 431 c 2
 100 533 l 1
 138 533 l 1xbc
 138 452 l 1
 175 511 239 546 310 546 c 0
 401 546 459 499 479 434 c 1
 512 503 581 546 658 546 c 0
 783 546 837 464 837 352 c 0
 837 235 837 118 838 1 c 1
 800 1 l 1
 799 117 799 234 799 350 c 0
 799 442 751 507 650 507 c 0
 578 507 515 464 487 397 c 1
 488 386 489 374 489 362 c 0
 489 241 488 121 487 1 c 1
 449 1 l 1
 450 122 451 242 451 363 c 0xdc
EndSplineSet
EndChar

StartChar: n
Encoding: 110 110 70
Width: 588
Flags: MW
HStem: 0 21G<91 129 91 91 460 460 460 498> 506 38<275 351> 513 20G<93 131 131 131>
VStem: 93 38<447 533> 460 38<0 368 368 371 0 409.5>
LayerCount: 2
Fore
SplineSet
460 368 m 2xd8
 460 451 397 506 305 506 c 0xd8
 231 506 166 468 131 403 c 1
 131 268 130 135 129 0 c 1
 91 0 l 1
 92 144 93 287 93 431 c 2
 93 533 l 1
 131 533 l 1xb8
 131 447 l 1
 171 508 238 544 312 544 c 0
 426 544 498 472 498 371 c 2
 498 0 l 1
 460 0 l 1
 460 368 l 2xd8
EndSplineSet
EndChar

StartChar: o
Encoding: 111 111 71
Width: 604
Flags: MW
HStem: -7 40<235 362 235 371> 502 37<235 360.5>
VStem: 71 38<206 341 206 348> 486 38<201 336>
LayerCount: 2
Fore
SplineSet
109 276 m 0
 109 136 173 33 297 33 c 0
 427 33 486 133 486 269 c 0
 486 403 421 502 300 502 c 0
 170 502 109 406 109 276 c 0
299 -7 m 0
 144 -7 71 112 71 270 c 0
 71 426 152 539 298 539 c 0
 449 539 524 425 524 270 c 0
 524 110 443 -7 299 -7 c 0
EndSplineSet
EndChar

StartChar: p
Encoding: 112 112 72
Width: 621
Flags: MW
HStem: -300 21G<91 129 91 91> -6 33<258.5 291> 512 28<285.5 318 318 320> 513 20G<91 129 129 129>
VStem: 91 38<-300 -300> 508 38<206.5 339.5>
LayerCount: 2
Fore
SplineSet
325 540 m 0xec
 470 540 546 413 546 273 c 0
 546 112 447 -5 291 -6 c 0
 226 -6 172 16 131 58 c 1
 131 -61 131 -181 129 -300 c 1
 91 -300 l 1
 92 -158 93 -16 93 126 c 0
 93 214 93 301 92 389 c 0
 92 437 92 485 91 533 c 1
 129 533 l 1xdc
 130 499 130 466 130 432 c 1
 172 497 246 540 325 540 c 0xec
283 27 m 0
 428 27 508 136 508 277 c 0
 508 402 437 510 320 512 c 1
 318 512 l 2xec
 230 512 151 448 130 364 c 1
 131 276 131 189 131 101 c 1
 169 52 222 27 283 27 c 0
EndSplineSet
EndChar

StartChar: q
Encoding: 113 113 73
Width: 630
Flags: MW
HStem: -300 21G<494 532 494 494> -10 30<281 375.5> 507 31<266.5 361 250 367.5>
VStem: 70 39<200.5 340.5 200.5 349> 494 38<-300 36 36 36 68 426 426 426 466 533 -300 533>
LayerCount: 2
Fore
SplineSet
324 538 m 0
 398 538 453 512 494 466 c 1
 494 533 l 1
 532 533 l 1
 532 -300 l 1
 494 -300 l 1
 494 36 l 1
 450 5 402 -10 349 -10 c 0
 180 -10 70 107 70 274 c 0
 70 424 176 538 324 538 c 0
109 275 m 0
 109 126 206 20 356 20 c 0
 407 20 452 36 494 68 c 1
 494 426 l 1
 456 479 400 507 335 507 c 0
 198 507 109 406 109 275 c 0
EndSplineSet
EndChar

StartChar: r
Encoding: 114 114 74
Width: 394
Flags: MW
HStem: 0 21G<88 126 88 88> 503 37<304 357.5> 513 20G<88 126 126 126>
VStem: 88 38<0 386 438 533>
LayerCount: 2
Fore
SplineSet
353 503 m 0xd0
 246 503 172 454 126 386 c 1
 126 0 l 1
 88 0 l 1
 88 533 l 1
 126 533 l 1xb0
 126 438 l 1
 176 496 253 540 355 540 c 0
 365 540 374 540 384 539 c 1
 380 502 l 1
 371 503 362 503 353 503 c 0xd0
EndSplineSet
EndChar

StartChar: s
Encoding: 115 115 75
Width: 470
Flags: MW
HStem: -6 36<179 252 179 259> 505 34<205.5 269.5>
VStem: 74 36<362 435 362 446.5> 371 37<94 166.5>
LayerCount: 2
Fore
SplineSet
22 51 m 1
 42 82 l 1
 95 46 147 30 211 30 c 0
 293 30 371 56 371 132 c 0
 371 201 302 226 230 250 c 0
 151 276 74 310 74 406 c 0
 74 487 147 539 243 539 c 0
 306 539 352 523 400 491 c 1
 383 460 l 1
 340 491 296 505 243 505 c 0
 168 505 110 466 110 404 c 0
 110 320 185 301 255 278 c 0
 336 252 408 217 408 133 c 0
 408 39 314 -6 204 -6 c 0
 136 -6 79 12 22 51 c 1
EndSplineSet
EndChar

StartChar: t
Encoding: 116 116 76
Width: 430
Flags: MW
HStem: -6 33<266.5 307> 466 37<26 26 26 164>
VStem: 164 38<141 164 164 466 503 635 635 635>
LayerCount: 2
Fore
SplineSet
26 466 m 1
 25 503 l 1
 164 503 l 1
 164 635 l 1
 202 658 l 1
 202 503 l 1
 418 504 l 1
 418 467 l 1
 202 466 l 1
 202 164 l 2
 202 89 233 27 300 27 c 0
 334 27 367 35 395 52 c 1
 408 22 l 1
 370 4 328 -6 286 -6 c 0
 208 -6 164 58 164 141 c 2
 164 466 l 1
 26 466 l 1
EndSplineSet
EndChar

StartChar: u
Encoding: 117 117 77
Width: 589
Flags: MW
HStem: -11 31<237 314> 0 21G<458 496 458 458> 513 20G<96 134 134 134 458 496 496 496>
VStem: 96 38<171 184 184 533> 458 38<0 90 90 90 150 533 0 533>
LayerCount: 2
Fore
SplineSet
134 184 m 2xb8
 134 91 186 20 288 20 c 0xb8
 368 20 437 74 458 150 c 1
 458 533 l 1
 496 533 l 1
 496 0 l 1
 458 0 l 1x78
 458 90 l 1
 420 28 352 -11 276 -11 c 0
 160 -11 96 69 96 171 c 2
 96 533 l 1
 134 533 l 1
 134 184 l 2xb8
EndSplineSet
EndChar

StartChar: v
Encoding: 118 118 78
Width: 560
Flags: MW
HStem: 0 21G<249 286 249 249> 513 20G<45 83 83 83 468 506 506 506>
LayerCount: 2
Fore
SplineSet
45 533 m 1
 83 533 l 1
 265 39 l 1
 468 533 l 1
 506 533 l 1
 286 0 l 1
 249 0 l 1
 45 533 l 1
EndSplineSet
EndChar

StartChar: w
Encoding: 119 119 79
Width: 929
Flags: MW
HStem: 0 21G<264 301 264 264 611 648 611 611> 513 20G<63 102 102 102 441 479 479 479 838 878 878 878>
LayerCount: 2
Fore
SplineSet
63 533 m 1
 102 533 l 1
 276 36 l 1
 441 531 l 1
 441 533 l 1
 479 533 l 1
 627 39 l 1
 838 533 l 1
 878 533 l 1
 648 0 l 1
 611 0 l 1
 460 475 l 1
 301 0 l 1
 264 0 l 1
 63 533 l 1
EndSplineSet
EndChar

StartChar: x
Encoding: 120 120 80
Width: 564
Flags: MW
HStem: 0 21G<56 96 56 56 450 494 450 450> 513 20G<94 139 139 139 457 496 496 496>
LayerCount: 2
Fore
SplineSet
94 533 m 1
 139 533 l 1
 287 311 l 1
 457 533 l 1
 496 533 l 1
 308 279 l 1
 494 0 l 1
 450 0 l 1
 286 245 l 1
 96 0 l 1
 56 0 l 1
 265 276 l 1
 94 533 l 1
EndSplineSet
EndChar

StartChar: y
Encoding: 121 121 81
Width: 569
Flags: MW
HStem: -300 21G<71 112 71 71> 513 20G<52 93 93 93 477 515 515 515>
LayerCount: 2
Fore
SplineSet
52 533 m 1
 93 533 l 1
 274 117 l 1
 477 533 l 1
 515 533 l 1
 112 -300 l 1
 71 -300 l 1
 257 81 l 1
 52 533 l 1
EndSplineSet
EndChar

StartChar: z
Encoding: 122 122 82
Width: 477
Flags: MW
HStem: 0 37<54 466 12 12> 476 37<58 455>
LayerCount: 2
Fore
SplineSet
58 476 m 1
 58 513 l 1
 455 513 l 1
 455 477 l 1
 54 37 l 1
 466 37 l 1
 466 0 l 1
 12 0 l 1
 12 37 l 1
 412 477 l 1
 58 476 l 1
EndSplineSet
EndChar

StartChar: bar
Encoding: 124 124 83
Width: 62
Flags: MW
HStem: -21 20G<12 50 50 50> 1 21G<12 12 12 50> 512 20G<12 50 50 50> 535 21G<12 50 12 12>
VStem: 12 38<-377 -1 -377 -1 1 532 535 847>
LayerCount: 2
Fore
SplineSet
12 847 m 1
 50 847 l 1
 50 535 l 1
 12 535 l 1
 12 847 l 1
12 1 m 1
 12 532 l 1
 50 532 l 1
 50 1 l 1
 12 1 l 1
12 -377 m 1
 12 -1 l 1
 50 -1 l 1
 50 -377 l 1
 12 -377 l 1
EndSplineSet
EndChar
